<svg width="89" height="56" viewBox="0 0 89 56" fill="none" xmlns="http://www.w3.org/2000/svg">
<g id="Layer_1-2">
<path id="Vector" d="M80.0281 38.0676L76.0792 43.5858C75.1445 44.8973 73.6302 45.6782 72.0361 45.6782C70.4421 45.6782 68.9277 44.8973 67.9931 43.5858L54.364 24.5115L60.5808 10.3144H74.9634V0H61.9212V0.0147349L52.3932 21.7635L47.6328 32.6452L40.5828 48.7504V0H30.4389V40.1231L10.1439 11.7364V0H0V55.9926H10.1439V16.7462L30.4317 45.1404V55.9926H40.5756V55.9779L49.5964 35.3859L59.7838 49.6419C62.6241 53.6129 67.2033 55.9853 72.0361 55.9853C76.869 55.9853 81.4482 53.6129 84.2885 49.6419L88.2301 44.1237L80.0281 38.0603V38.0676Z" fill="#D1D1D1"/>
</g>
</svg>
